<?xml version="1.0" standalone="no"?>
<!DOCTYPE svg PUBLIC "-//W3C//DTD SVG 20010904//EN"
 "http://www.w3.org/TR/2001/REC-SVG-20010904/DTD/svg10.dtd">
<svg version="1.0" xmlns="http://www.w3.org/2000/svg"
 width="324.000000pt" height="324.000000pt" viewBox="0 0 324.000000 324.000000"
 preserveAspectRatio="xMidYMid meet">

<g transform="translate(0.000000,324.000000) scale(0.100000,-0.100000)"
fill="#000000" stroke="none">
<path d="M940 3030 c-10 -62 -14 -69 -33 -67 -18 2 -24 -8 -40 -63 -23 -83
-24 -182 -2 -217 19 -29 16 -74 -17 -216 -22 -95 -42 -109 -32 -21 11 89 -37
243 -72 230 -8 -3 -14 0 -14 7 0 8 -3 8 -9 -2 -5 -7 -14 -10 -20 -7 -16 10
-14 -67 3 -130 17 -65 43 -109 73 -125 32 -17 30 -74 -7 -218 -16 -63 -35
-150 -42 -193 -7 -43 -15 -78 -19 -78 -4 0 -12 29 -18 64 -6 35 -20 89 -31
121 -11 32 -20 76 -20 97 0 73 -84 242 -118 236 -10 -2 -22 9 -33 32 l-16 34
5 -54 c5 -52 4 -54 -13 -40 -17 14 -17 13 -11 -10 36 -126 97 -220 144 -220
18 0 25 -13 46 -82 32 -106 61 -346 39 -324 -4 4 -17 34 -29 66 -30 84 -102
205 -152 259 -46 49 -46 42 0 -26 35 -52 83 -157 103 -226 19 -69 44 -177 40
-177 -2 0 -22 33 -44 74 -72 132 -190 265 -301 338 l-45 30 40 -38 c154 -149
256 -316 338 -554 27 -78 69 -222 65 -224 -1 -1 -66 -15 -143 -30 -77 -15
-142 -30 -145 -33 -4 -5 65 0 175 13 105 12 412 24 610 24 277 0 490 -13 787
-46 170 -19 292 -26 453 -27 238 -2 403 9 351 24 -17 5 -54 10 -83 11 -29 2
-53 4 -53 5 0 1 11 19 25 39 14 20 25 45 25 55 0 25 7 27 100 38 46 5 86 15
90 22 11 17 1 353 -11 409 -15 68 -99 272 -121 296 -23 26 -86 45 -172 53
l-61 6 -3 53 c-3 52 -3 52 27 52 44 0 78 19 91 51 14 32 7 60 -27 109 l-23 35
31 26 c39 32 22 50 -19 21 -25 -18 -29 -19 -47 -5 -60 46 -124 64 -237 69 -62
2 -149 9 -193 15 -71 10 -90 9 -165 -9 -49 -12 -117 -21 -160 -21 -80 0 -158
-12 -230 -36 -25 -8 -90 -17 -145 -19 -151 -5 -315 -56 -349 -109 -26 -40 -28
-70 -6 -112 l20 -39 -24 -26 c-43 -45 -49 -68 -42 -147 l7 -73 -30 0 c-29 0
-30 2 -28 43 2 42 2 42 -35 45 l-38 3 0 -224 0 -224 40 -7 40 -6 0 -65 0 -65
38 0 c21 0 48 7 60 16 l22 15 0 -75 c0 -73 1 -76 24 -76 22 0 54 -25 44 -35
-3 -3 -74 -10 -159 -15 -85 -5 -170 -13 -190 -16 l-37 -5 -7 104 c-13 182 8
401 56 592 25 101 35 126 63 155 42 44 59 78 80 158 8 34 23 74 33 90 10 15
-16 -7 -57 -48 -61 -61 -78 -85 -92 -131 -20 -63 -22 -83 -8 -74 17 11 11 -18
-8 -39 -11 -12 -29 -48 -42 -81 -46 -119 -47 -93 -4 123 39 194 124 392 168
392 23 0 116 54 116 67 0 5 16 19 36 32 23 16 31 27 23 32 -9 5 -8 11 4 24 19
19 22 30 6 19 -6 -3 -15 -1 -19 5 -11 18 -62 2 -68 -21 -3 -12 -7 -15 -11 -9
-13 20 -88 -65 -126 -143 -44 -90 -61 -106 -50 -50 4 21 11 65 15 96 6 44 15
63 35 80 32 28 65 137 65 215 0 48 -2 53 -21 53 -21 0 -22 3 -16 75 4 41 5 75
3 75 -2 0 -9 -31 -16 -70z m11 -143 c-10 -9 -11 -8 -5 6 3 10 9 15 12 12 3 -3
0 -11 -7 -18z m-51 -31 c0 -3 -4 -8 -10 -11 -5 -3 -10 -1 -10 4 0 6 5 11 10
11 6 0 10 -2 10 -4z m-10 -66 c0 -5 -2 -10 -4 -10 -3 0 -8 5 -11 10 -3 6 -1
10 4 10 6 0 11 -4 11 -10z m60 -10 c0 -5 -4 -10 -10 -10 -5 0 -10 5 -10 10 0
6 5 10 10 10 6 0 10 -4 10 -10z m-60 -50 c0 -5 -2 -10 -4 -10 -3 0 -8 5 -11
10 -3 6 -1 10 4 10 6 0 11 -4 11 -10z m1269 -177 c25 -14 67 -44 94 -65 42
-36 47 -38 47 -19 0 15 -18 33 -57 59 l-58 37 60 3 c76 4 130 -16 180 -68 61
-62 80 -49 23 16 l-33 37 30 -7 c42 -10 120 -64 139 -98 19 -31 20 -31 -49
-28 -65 3 -110 3 -220 0 -69 -3 -50 -5 85 -10 96 -4 185 -10 197 -14 50 -16
35 -99 -19 -110 -51 -10 -270 -7 -313 5 -22 6 -84 33 -137 60 -82 41 -107 49
-150 48 -70 -1 -170 -38 -183 -67 -17 -37 -25 -25 -25 37 0 50 5 66 33 107 30
43 41 51 113 76 106 37 181 38 243 1z m-329 -9 c0 -4 -13 -22 -30 -40 -35 -41
-54 -104 -46 -157 l7 -39 -144 4 c-164 3 -177 9 -177 68 0 76 75 127 227 154
83 15 163 20 163 10z m-375 -64 c11 -5 14 -9 7 -9 -16 -1 -42 -61 -42 -96 0
-39 23 -105 37 -105 19 0 16 -15 -11 -47 -33 -39 -48 -100 -36 -143 14 -47 14
-47 -19 -58 -35 -12 -55 -1 -71 41 -15 42 -12 67 15 125 15 32 34 56 50 64 25
11 25 13 9 25 -25 18 -20 87 11 147 17 32 20 44 10 36 -33 -28 -57 -91 -52
-137 l5 -44 -141 3 -142 3 -9 27 c-14 40 9 84 58 112 35 20 108 43 191 60 36
7 109 5 130 -4z m-917 -95 c-3 -3 -9 2 -12 12 -6 14 -5 15 5 6 7 -7 10 -15 7
-18z m1297 -373 c-3 -180 -8 -342 -11 -360 l-5 -34 -217 7 c-543 15 -653 23
-659 42 -3 9 14 11 69 8 40 -3 170 -7 288 -10 118 -2 277 -7 352 -11 l136 -6
6 43 c3 24 8 179 11 344 4 164 9 303 11 307 20 32 24 -33 19 -330z m-48 262
c3 -9 1 -24 -5 -33 -42 -59 -54 -96 -50 -154 l4 -59 -40 5 c-23 3 -86 11 -141
17 -55 7 -107 19 -114 26 -19 17 -18 72 2 111 9 16 34 42 57 58 42 29 38 29
258 43 13 1 25 -5 29 -14z m-437 -24 c0 -6 -10 -25 -22 -41 -19 -25 -23 -44
-23 -103 l0 -73 -95 4 c-126 6 -152 13 -168 46 -30 61 34 151 117 168 58 11
191 10 191 -1z m440 -125 c0 -76 -3 -95 -14 -95 -22 0 -28 16 -28 70 1 44 24
120 36 120 4 0 6 -43 6 -95z m843 14 c73 -10 107 -23 107 -41 0 -7 -13 -8 -37
-4 -21 3 -112 9 -203 12 -213 9 -205 15 -155 -142 50 -158 57 -212 51 -403
l-4 -166 -24 3 c-40 4 -44 8 -86 95 -23 47 -53 92 -67 101 -14 9 -25 12 -25 6
0 -6 -10 -8 -24 -4 -42 10 -90 -13 -126 -61 -19 -25 -37 -45 -41 -45 -23 0
-34 237 -20 442 14 207 17 216 73 221 71 7 508 -3 581 -14z m45 -55 c67 -6 74
-9 87 -34 26 -51 65 -162 65 -187 l0 -25 -209 3 c-115 2 -204 1 -198 -3 7 -4
107 -8 223 -8 243 0 224 9 224 -107 0 -50 -4 -67 -20 -83 -15 -15 -20 -32 -18
-67 l1 -48 6 44 c7 50 31 69 31 24 0 -49 -11 -71 -37 -78 -14 -3 -27 -4 -29
-2 -3 2 1 27 8 55 6 29 9 54 7 57 -9 8 -264 15 -276 7 -9 -6 -9 -17 2 -47 17
-47 18 -65 6 -65 -5 0 -11 12 -14 28 -7 32 -32 62 -69 81 -16 8 -26 16 -24 18
2 3 18 -3 36 -12 18 -9 34 -14 37 -11 4 3 -19 17 -49 31 l-55 25 -8 93 c-4 50
-10 97 -15 102 -4 6 -21 53 -38 105 -23 72 -28 98 -19 109 11 13 144 11 345
-5z m-1210 -95 c-18 -10 -88 -8 -88 3 0 4 23 7 52 6 37 0 47 -3 36 -9z m192 1
c0 -5 -11 -10 -24 -10 -14 0 -28 5 -31 10 -4 6 7 10 24 10 17 0 31 -4 31 -10z
m-441 -5 c-8 -7 -168 -9 -175 -2 -4 4 35 7 86 7 51 0 91 -2 89 -5z m81 1 c0
-2 -7 -6 -15 -10 -8 -3 -15 -1 -15 4 0 6 7 10 15 10 8 0 15 -2 15 -4z m108
-70 c3 -26 2 -26 -57 -26 -58 0 -61 1 -61 24 0 27 11 32 74 30 37 -1 41 -4 44
-28z m175 15 c4 -4 5 -15 1 -24 -5 -13 -18 -16 -62 -14 -53 2 -57 4 -60 27 -3
24 -2 25 55 22 32 -2 62 -7 66 -11z m-523 -16 c0 -23 -4 -25 -45 -25 -41 0
-45 2 -45 25 0 23 4 25 45 25 41 0 45 -2 45 -25z m170 5 c0 -24 -36 -35 -84
-26 -26 5 -34 11 -33 26 1 17 9 20 59 20 51 0 58 -2 58 -20z m530 -4 c0 -22
-5 -24 -55 -28 -42 -2 -55 0 -58 12 -8 32 4 40 59 40 50 0 54 -2 54 -24z
m-700 -86 c0 -24 -28 -40 -69 -37 -27 2 -31 6 -31 30 0 26 2 27 50 27 43 0 50
-3 50 -20z m165 -9 c0 -23 -4 -25 -52 -25 -29 -1 -53 1 -53 4 0 3 -3 15 -6 28
-6 22 -5 23 52 20 55 -3 59 -5 59 -27z m175 -4 l0 -34 -47 4 c-66 5 -73 9 -73
38 0 24 2 25 60 25 l60 0 0 -33z m182 19 c4 -6 8 -21 8 -34 0 -20 -4 -22 -37
-18 -21 3 -50 5 -65 5 -24 1 -28 5 -28 32 l0 30 58 -2 c31 -1 60 -7 64 -13z
m170 -21 l4 -35 -53 0 -53 0 0 35 0 35 49 0 c48 0 49 0 53 -35z m-701 -77 c9
-16 5 -18 -41 -18 -36 0 -50 4 -50 14 0 30 76 33 91 4z m166 -8 c1 -16 -4 -20
-30 -20 -47 0 -77 10 -77 26 0 10 15 14 53 14 46 0 53 -3 54 -20z m186 14 c3
-3 3 -12 0 -20 -4 -10 -23 -14 -63 -14 -53 0 -58 2 -53 20 4 17 14 20 57 20
29 0 55 -3 59 -6z m184 -10 c11 -28 -12 -38 -69 -28 -38 6 -54 14 -56 27 -3
15 5 17 58 17 46 0 62 -4 67 -16z m142 10 c21 -5 31 -12 31 -25 0 -16 -8 -19
-55 -19 -52 0 -55 1 -55 25 0 27 17 31 79 19z m699 -161 c7 -50 6 -63 -5 -63
-10 0 -13 18 -12 73 1 82 5 79 17 -10z m-1313 -9 l-15 -39 6 35 c7 38 14 54
20 47 2 -2 -3 -21 -11 -43z m1371 28 c19 -12 34 -50 28 -67 -4 -10 -16 -15
-33 -13 -20 2 -27 9 -29 31 -6 48 8 67 34 49z m-1332 -27 c-9 -14 -18 -25 -21
-25 -5 0 5 18 20 38 17 22 18 13 1 -13z m195 11 c6 -7 13 -35 16 -62 l5 -49
-14 48 c-8 26 -20 54 -26 62 -7 9 -8 15 -2 15 5 0 15 -6 21 -14z m1371 4 c0
-5 -11 -10 -25 -10 -14 0 -25 5 -25 10 0 6 11 10 25 10 14 0 25 -4 25 -10z
m-1439 -37 c13 -16 12 -17 -3 -4 -10 7 -18 15 -18 17 0 8 8 3 21 -13z m1429 1
c0 -2 -9 -4 -20 -4 -11 0 -20 4 -20 9 0 5 9 7 20 4 11 -3 20 -7 20 -9z m-800
2 c0 -3 -4 -8 -10 -11 -5 -3 -10 -1 -10 4 0 6 5 11 10 11 6 0 10 -2 10 -4z
m-712 -26 c-14 -22 -24 -19 -15 5 4 8 11 15 17 15 6 0 6 -7 -2 -20z m592 13
c0 -5 -5 -15 -10 -23 -8 -12 -10 -11 -10 8 0 12 5 22 10 22 6 0 10 -3 10 -7z
m75 -3 c-3 -5 -13 -10 -21 -10 -8 0 -14 5 -14 10 0 6 9 10 21 10 11 0 17 -4
14 -10z m-587 -53 c16 -32 6 -75 -22 -91 -37 -23 -71 57 -45 105 15 28 51 21
67 -14z m1602 -38 c0 -40 -3 -48 -23 -53 -38 -9 -371 -19 -410 -12 l-37 7 0
52 0 52 235 0 235 0 0 -46z m-680 2 c25 -47 1 -121 -38 -121 -44 0 -65 60 -40
115 14 31 62 35 78 6z m-390 -16 c15 -9 54 -14 100 -15 109 0 115 -3 127 -61
5 -27 7 -52 3 -54 -8 -5 -301 14 -339 21 l-24 5 21 22 c11 12 24 36 28 52 4
17 9 33 11 38 7 12 46 8 73 -8z m-326 -51 c14 -26 26 -48 26 -50 0 -2 -25 -4
-56 -4 -31 0 -54 3 -52 8 13 26 27 60 32 75 9 28 23 20 50 -29z m919 -14 c20
0 38 -27 76 -113 3 -8 -159 1 -168 9 -2 2 3 21 12 41 8 21 18 46 21 57 4 11
12 16 22 12 9 -3 25 -6 37 -6z"/>
<path d="M2067 2103 c-4 -3 -7 -58 -7 -122 0 -72 -4 -111 -9 -106 -6 6 -12 33
-14 60 l-3 50 -2 -56 c-2 -65 -2 -66 90 -73 l63 -5 -53 11 c-62 13 -64 17 -60
138 l3 85 82 3 81 3 16 -32 c18 -37 14 -49 -20 -49 -23 0 -24 -3 -24 -69 0
-38 -3 -76 -6 -85 -5 -12 1 -16 23 -16 16 0 36 -9 46 -20 9 -11 29 -20 43 -20
26 0 27 0 20 58 -4 31 -10 71 -15 87 -8 27 -9 25 -10 -22 -1 -72 -21 -67 -22
5 -1 88 -14 154 -35 169 -19 14 -175 19 -187 6z m233 -263 c0 -5 -4 -10 -10
-10 -5 0 -10 5 -10 10 0 6 5 10 10 10 6 0 10 -4 10 -10z"/>
<path d="M2043 2050 c0 -30 2 -43 4 -27 2 15 2 39 0 55 -2 15 -4 2 -4 -28z"/>
<path d="M2020 1780 c0 -16 5 -21 23 -18 12 2 22 10 22 18 0 8 -10 16 -22 18
-18 3 -23 -2 -23 -18z"/>
<path d="M1990 1629 c0 -5 5 -7 10 -4 6 3 10 8 10 11 0 2 -4 4 -10 4 -5 0 -10
-5 -10 -11z"/>
<path d="M2048 1623 c7 -3 16 -2 19 1 4 3 -2 6 -13 5 -11 0 -14 -3 -6 -6z"/>
<path d="M2098 1623 c12 -2 32 -2 45 0 12 2 2 4 -23 4 -25 0 -35 -2 -22 -4z"/>
<path d="M1661 1804 c0 -11 3 -14 6 -6 3 7 2 16 -1 19 -3 4 -6 -2 -5 -13z"/>
<path d="M2602 1438 c3 -22 7 -23 88 -23 81 0 85 1 88 23 2 12 -1 22 -7 22 -6
0 -8 -6 -5 -14 4 -10 -9 -15 -50 -20 -63 -8 -96 -1 -96 20 0 8 -5 14 -11 14
-6 0 -9 -10 -7 -22z"/>
<path d="M2470 1440 c0 -5 9 -10 20 -10 11 0 20 5 20 10 0 6 -9 10 -20 10 -11
0 -20 -4 -20 -10z"/>
<path d="M711 2714 c0 -11 3 -14 6 -6 3 7 2 16 -1 19 -3 4 -6 -2 -5 -13z"/>
<path d="M1082 788 l3 -233 35 -3 c24 -3 38 2 47 14 13 17 14 17 44 0 71 -42
165 -12 205 66 19 37 18 142 -2 184 -31 65 -130 95 -194 59 -14 -8 -28 -14
-32 -15 -5 0 -8 36 -8 80 l0 80 -50 0 -50 0 2 -232z m223 7 c29 -28 34 -89 10
-134 -33 -66 -112 -53 -130 22 -25 98 57 175 120 112z"/>
<path d="M1510 784 l0 -235 48 3 47 3 5 113 c5 104 7 115 29 133 29 24 53 24
82 0 22 -18 24 -27 27 -136 l4 -116 46 3 47 3 3 122 c3 138 -7 172 -58 198
-41 21 -108 19 -147 -5 l-33 -20 0 85 0 85 -50 0 -50 0 0 -236z"/>
<path d="M334 981 c-52 -24 -74 -55 -74 -106 0 -62 28 -95 122 -140 77 -37 83
-42 83 -70 0 -27 -4 -31 -39 -40 -31 -7 -50 -5 -100 12 -33 12 -62 21 -63 20
-1 -1 -3 -20 -5 -42 -4 -52 21 -65 127 -65 123 0 190 45 190 130 0 59 -29 90
-126 130 -78 33 -84 38 -87 68 -3 27 1 32 23 38 26 6 91 1 131 -11 18 -6 23
-1 33 25 13 40 9 47 -37 60 -57 15 -132 12 -178 -9z"/>
<path d="M649 786 c-2 -129 0 -145 13 -179 23 -60 140 -79 196 -32 l29 24 11
-24 c9 -20 19 -25 46 -25 l35 0 3 148 c4 198 5 192 -42 192 -52 0 -60 -17 -60
-132 0 -51 -4 -98 -8 -104 -24 -37 -93 -39 -112 -4 -6 10 -10 66 -10 124 0 58
-3 107 -7 107 -5 1 -27 3 -50 4 l-43 3 -1 -102z"/>
<path d="M2000 878 c-48 -13 -53 -20 -39 -52 10 -21 17 -26 33 -21 12 4 44 9
73 12 45 5 52 3 63 -17 19 -35 6 -50 -42 -50 -126 0 -192 -65 -151 -148 32
-64 138 -77 188 -22 18 20 18 20 42 -6 18 -20 31 -25 61 -22 32 3 37 7 40 31
2 17 -3 34 -11 40 -11 9 -16 38 -19 102 -5 97 -15 123 -59 149 -30 18 -122 20
-179 4z m140 -198 c0 -29 -44 -70 -74 -70 -36 0 -52 34 -31 66 12 19 24 24 60
24 39 0 45 -3 45 -20z"/>
<path d="M2344 875 c-3 -6 -3 -80 -2 -165 l3 -155 47 -3 46 -3 4 115 c3 129
13 149 69 149 51 0 59 -21 59 -150 l0 -113 50 0 50 0 0 88 c0 48 5 104 10 124
15 54 56 73 96 44 16 -12 20 -30 24 -133 l5 -118 48 -3 49 -3 -4 140 c-3 137
-4 141 -30 167 -40 40 -110 44 -161 10 -40 -27 -57 -32 -57 -16 0 17 -58 40
-102 40 -26 0 -57 -8 -77 -21 -28 -17 -35 -18 -45 -6 -14 19 -76 28 -82 12z"/>
<path d="M670 371 c0 -5 12 -11 28 -13 26 -3 27 -5 30 -76 4 -99 26 -94 30 6
l3 72 30 0 c18 0 28 4 24 10 -8 13 -145 13 -145 1z"/>
<path d="M944 367 c-10 -27 1 -150 14 -155 7 -2 12 6 12 22 0 37 46 36 76 -1
25 -31 42 -26 25 6 -9 16 -8 26 4 45 22 33 16 68 -15 83 -34 17 -109 17 -116
0z m97 -17 c42 -23 8 -75 -44 -68 -22 3 -34 35 -23 64 6 16 39 18 67 4z"/>
<path d="M1265 348 c-7 -18 -23 -55 -34 -82 -23 -52 -19 -76 6 -38 21 31 107
32 123 2 15 -28 33 -26 24 3 -4 12 -20 50 -35 85 -34 73 -61 83 -84 30z m55
-34 c15 -39 13 -44 -20 -44 -33 0 -36 7 -18 45 14 32 26 32 38 -1z"/>
<path d="M1520 295 l0 -88 62 6 c51 5 67 10 85 32 29 34 29 67 0 101 -20 23
-34 28 -85 32 l-62 4 0 -87z m123 34 c9 -12 17 -27 17 -34 0 -25 -36 -56 -72
-62 l-38 -6 0 68 0 68 38 -6 c20 -4 45 -16 55 -28z"/>
<path d="M1822 298 l3 -83 54 -3 c75 -4 101 11 31 18 -47 4 -55 8 -58 27 -3
19 3 23 42 28 58 9 59 23 4 27 -35 2 -43 7 -43 23 0 17 8 20 48 23 71 5 57 22
-18 22 l-66 0 3 -82z"/>
<path d="M2092 298 c2 -49 7 -82 13 -81 6 1 11 11 13 22 5 32 30 32 67 -1 38
-32 54 -34 31 -3 -11 16 -11 23 5 49 35 59 1 96 -87 96 l-45 0 3 -82z m108 22
c0 -29 -15 -40 -56 -40 -21 0 -24 5 -24 34 0 37 14 46 58 38 16 -3 22 -11 22
-32z"/>
<path d="M2375 360 c-27 -30 -8 -65 42 -77 28 -6 38 -14 38 -28 0 -17 -6 -20
-47 -18 -47 1 -63 -9 -32 -21 48 -18 124 8 124 43 0 17 -29 39 -59 46 -71 15
-60 61 12 50 37 -5 51 7 21 19 -33 13 -81 6 -99 -14z"/>
</g>
</svg>
